<svg width="14" height="17" viewBox="0 0 14 17" fill="none" xmlns="http://www.w3.org/2000/svg">
<path fill-rule="evenodd" clip-rule="evenodd" d="M0.847745 7.64588V15.7286C0.849684 15.9621 1.03943 16.1505 1.27244 16.1499H12.7167C12.9544 16.1499 13.1414 15.9624 13.1414 15.7289L13.1416 7.64657C13.1395 7.41281 12.9499 7.22495 12.7169 7.22557H1.27259C1.03525 7.22557 0.847894 7.41311 0.847894 7.64657L0.847745 7.64588ZM0 7.64588C0 7.30788 0.133957 6.98394 0.372932 6.74537C0.611908 6.50683 0.935333 6.37343 1.27273 6.37477H12.717C13.4181 6.37447 13.9874 6.94295 13.9898 7.64585V15.7286C13.9901 16.0669 13.8558 16.3908 13.6168 16.6294C13.3782 16.8679 13.0544 17.0016 12.717 17H1.27274C0.571642 17.0006 0.00236751 16.4318 0.000305339 15.7289L0 7.64588Z" fill="#1BAC4B"/>
<path fill-rule="evenodd" clip-rule="evenodd" d="M3.3912 3.61241C3.3912 2.08932 4.62679 0.849784 6.14703 0.849784H7.63073C9.1523 0.849784 10.3862 2.08664 10.3866 3.61241V5.13178C10.3866 5.13178 10.504 5.42342 10.8375 5.42342C11.1714 5.42342 11.2345 5.13208 11.2345 5.13208V3.61244C11.2342 1.61735 9.61985 0 7.63076 0H6.14707C4.15711 0 2.54392 1.62152 2.54392 3.61244V6.80012L3.39181 6.63711L3.39166 3.61245L3.3912 3.61241Z" fill="#1BAC4B"/>
<path fill-rule="evenodd" clip-rule="evenodd" d="M6.7971 9.5763V13.58C6.7971 13.8148 6.98685 14.005 7.22106 14.005C7.45497 14.005 7.64473 13.8148 7.64473 13.58L7.64488 9.5763C7.64488 9.34179 7.45513 9.15124 7.22121 9.15124C6.98701 9.15124 6.79713 9.34177 6.79713 9.5763H6.7971Z" fill="#1BAC4B"/>
</svg>
