<svg width="13" height="12" viewBox="0 0 13 12" fill="none" xmlns="http://www.w3.org/2000/svg">
<path d="M10.9112 1.68059H9.5617V0.940045C9.5617 0.797947 9.44644 0.682678 9.30433 0.682678C9.16224 0.682678 9.04697 0.797936 9.04697 0.940045V1.6805H3.45916V0.940045C3.45916 0.797947 3.34391 0.682678 3.2018 0.682678C3.0597 0.682678 2.94443 0.797936 2.94443 0.940045V1.6805H1.59489C0.885333 1.6805 0.308105 2.2577 0.308105 2.96728V10.7132C0.308105 11.4228 0.88531 12 1.59489 12H10.9112C11.6208 12 12.198 11.4228 12.198 10.7132V2.96728C12.198 2.25772 11.6208 1.6805 10.9112 1.6805L10.9112 1.68059ZM1.59494 2.1953H2.94448V3.53446C2.94448 3.67656 3.05973 3.79183 3.20184 3.79183C3.34394 3.79183 3.45921 3.67657 3.45921 3.53446V2.1953H9.04702V3.53446C9.04702 3.67656 9.16227 3.79183 9.30438 3.79183C9.44648 3.79183 9.56175 3.67657 9.56175 3.53446V2.1953H10.9113C11.337 2.1953 11.6833 2.54163 11.6833 2.96735V5.15716L0.823027 5.15706V2.96726C0.823027 2.54161 1.16936 2.19528 1.59508 2.19528L1.59494 2.1953ZM10.9112 11.4852H1.59494C1.16919 11.4852 0.822886 11.1389 0.822886 10.7132V5.67175H11.6832V10.7132C11.6832 11.1388 11.3369 11.4852 10.9111 11.4852H10.9112Z" fill="#1BAC4B"/>
<path d="M7.92116 7.03029L5.76362 9.09317L4.6693 7.99886C4.56875 7.8984 4.40589 7.8984 4.30533 7.99886C4.20487 8.09932 4.20487 8.26227 4.30533 8.36284L5.57766 9.63517C5.62785 9.68536 5.69375 9.71054 5.75965 9.71054C5.82362 9.71054 5.88768 9.68683 5.9375 9.63922L8.27695 7.40245C8.37962 7.30429 8.38339 7.14132 8.28504 7.03857C8.18679 6.93572 8.02391 6.93213 7.92116 7.03029L7.92116 7.03029Z" fill="#1BAC4B"/>
</svg>
