<svg width="18" height="13" viewBox="0 0 18 13" fill="none" xmlns="http://www.w3.org/2000/svg">
<path d="M7.875 10.8333C7.25364 10.8333 6.75 11.3183 6.75 11.9167C6.75 12.515 7.25364 13 7.875 13H10.125C10.7464 13 11.25 12.515 11.25 11.9167C11.25 11.3183 10.7464 10.8333 10.125 10.8333H7.875ZM4.5 5.41667C3.87864 5.41667 3.375 5.90165 3.375 6.5C3.375 7.09835 3.87864 7.58333 4.5 7.58333H13.5C14.1214 7.58333 14.625 7.09835 14.625 6.5C14.625 5.90165 14.1214 5.41667 13.5 5.41667H4.5ZM1.125 0C0.503641 0 0 0.484987 0 1.08333C0 1.68168 0.503641 2.16667 1.125 2.16667H16.875C17.4964 2.16667 18 1.68168 18 1.08333C18 0.484987 17.4964 0 16.875 0H1.125Z" fill="#1BAC4B"/>
</svg>
