<svg width="16" height="13" viewBox="0 0 16 13" fill="none" xmlns="http://www.w3.org/2000/svg">
<path fill-rule="evenodd" clip-rule="evenodd" d="M5.24168 0.850449C5.47947 0.332026 5.99505 0 6.56238 0H9.43703C10.0043 0 10.5199 0.331999 10.7577 0.850449L11.2404 1.9032H11.927C12.0877 1.9032 12.2179 2.0343 12.2179 2.19601C12.2179 2.35774 12.0877 2.48883 11.927 2.48883H1.45426C0.972221 2.48883 0.58151 2.8821 0.58151 3.36729V4.24576H5.14939C5.88396 3.52121 6.89007 3.07445 7.99981 3.07445C9.10956 3.07445 10.1156 3.52121 10.8502 4.24576H15.4181V3.36729C15.4181 2.8821 15.0274 2.48883 14.5454 2.48883H14.2545C14.0939 2.48883 13.9637 2.35773 13.9637 2.19601C13.9637 2.03428 14.0939 1.9032 14.2545 1.9032H14.5454C15.3488 1.9032 16 2.55877 16 3.36732V10.9803C16 11.7889 15.3488 12.4444 14.5454 12.4444H1.45459C0.651194 12.4444 0 11.7889 0 10.9803V3.36732C0 2.55877 0.651194 1.9032 1.45459 1.9032H1.74549V1.6105C1.74549 1.44877 1.87573 1.31769 2.03629 1.31769H3.19997C3.36064 1.31769 3.49088 1.44878 3.49088 1.6105V1.9032H4.75929L5.24168 0.850449ZM0.581565 4.83139H4.6569C4.19669 5.49541 3.92685 6.30299 3.92685 7.17397C3.92685 9.43796 5.75031 11.2732 7.9997 11.2732C10.2491 11.2732 12.0726 9.43791 12.0726 7.17397C12.0726 6.30296 11.8027 5.49541 11.3425 4.83139H15.4178V10.9806C15.4178 11.4658 15.0271 11.859 14.5451 11.859H1.45431C0.972276 11.859 0.581565 11.4658 0.581565 10.9806V4.83139ZM5.39972 1.90326H10.5995L10.2293 1.09601C10.0867 0.78488 9.77727 0.585598 9.43689 0.585598H6.56224C6.22186 0.585598 5.91242 0.784891 5.76983 1.09601L5.39972 1.90326ZM6.39958 1.31771C6.39958 1.15598 6.52982 1.0249 6.69049 1.0249H9.30864C9.46932 1.0249 9.59955 1.156 9.59955 1.31771C9.59955 1.47944 9.46931 1.61053 9.30864 1.61053H6.69049C6.52981 1.61053 6.39958 1.47943 6.39958 1.31771ZM7.99956 3.66019C6.07167 3.66019 4.50874 5.23333 4.50874 7.17389C4.50874 9.11442 6.07175 10.6876 7.99956 10.6876C9.92738 10.6876 11.4904 9.11433 11.4904 7.17389C11.4904 5.23325 9.92738 3.66019 7.99956 3.66019ZM5.67234 7.17389C5.67234 5.88015 6.71427 4.8313 7.99956 4.8313C9.28485 4.8313 10.3268 5.88017 10.3268 7.17389C10.3268 8.46763 9.28485 9.51636 7.99956 9.51636C6.71427 9.51636 5.67234 8.4676 5.67234 7.17389ZM7.99956 4.24576C6.39292 4.24576 5.0905 5.55671 5.0905 7.17389C5.0905 8.79107 6.39292 10.102 7.99956 10.102C9.60621 10.102 10.9086 8.79107 10.9086 7.17389C10.9086 5.55671 9.60621 4.24576 7.99956 4.24576ZM8.14497 5.70977C7.34169 5.70977 6.69049 6.36523 6.69049 7.17389C6.69049 7.33562 6.56025 7.4667 6.39959 7.4667C6.23891 7.4667 6.10868 7.33561 6.10868 7.17389C6.10868 6.04188 7.02036 5.12411 8.145 5.12411C8.30567 5.12411 8.4359 5.25521 8.4359 5.41693C8.4359 5.57866 8.30566 5.70974 8.145 5.70974L8.14497 5.70977ZM13.0903 2.48872C13.251 2.48872 13.3812 2.35762 13.3812 2.1959C13.3812 2.03417 13.251 1.90309 13.0903 1.90309C12.9297 1.90309 12.7994 2.03419 12.7994 2.1959C12.7994 2.35763 12.9297 2.48872 13.0903 2.48872Z" fill="white"/>
</svg>
