<svg width="15" height="17" viewBox="0 0 15 17" fill="none" xmlns="http://www.w3.org/2000/svg">
<path d="M7.49992 8.92004C3.36451 8.92004 0 12.2845 0 16.42C0 16.6651 0.198612 16.8637 0.443782 16.8637C0.688953 16.8637 0.887565 16.6651 0.887565 16.42C0.887565 12.774 3.85387 9.80761 7.49992 9.80761C11.146 9.80761 14.1123 12.7739 14.1123 16.42C14.1123 16.6651 14.3109 16.8637 14.5561 16.8637C14.8012 16.8637 14.9998 16.6651 14.9998 16.42C14.9998 12.2845 11.6353 8.92004 7.49992 8.92004Z" fill="#1BAC4B"/>
<path d="M7.49952 8.20998C9.763 8.20998 11.6045 6.36847 11.6045 4.10499C11.6045 1.84151 9.763 0 7.49952 0C5.23604 0 3.39453 1.84151 3.39453 4.10499C3.39453 6.36847 5.23604 8.20998 7.49952 8.20998ZM7.49952 0.887565C9.27367 0.887565 10.7169 2.33084 10.7169 4.10499C10.7169 5.87913 9.27367 7.32241 7.49952 7.32241C5.72537 7.32241 4.2821 5.87913 4.2821 4.10499C4.2821 2.33084 5.72537 0.887565 7.49952 0.887565Z" fill="#1BAC4B"/>
</svg>
