<svg width="20" height="13" viewBox="0 0 20 13" fill="none" xmlns="http://www.w3.org/2000/svg">
<path d="M18.0996 0H1.90039C1.39664 0.000379344 0.913497 0.182081 0.557212 0.504908C0.201046 0.827851 0.000571427 1.2656 0 1.72218V11.2778C0.000558034 11.7344 0.201031 12.1722 0.557212 12.4951C0.913518 12.8179 1.39664 12.9996 1.90039 13H18.0996C18.6034 12.9996 19.0865 12.8179 19.4428 12.4951C19.799 12.1721 19.9994 11.7344 20 11.2778V1.72218C19.9994 1.2656 19.799 0.827831 19.4428 0.504908C19.0865 0.182091 18.6034 0.00038844 18.0996 0ZM19.2273 11.8186L13.8587 6.95373L19.3751 1.95386V11.2777C19.3754 11.4664 19.3243 11.6522 19.2264 11.8188L19.2273 11.8186ZM1.90053 0.566152H18.0998C18.3463 0.566405 18.5876 0.631271 18.7944 0.753163C19.0011 0.87493 19.1645 1.04841 19.2648 1.25263L12.7827 7.12779C12.0442 7.79568 11.0434 8.17085 10.0002 8.17085C8.95693 8.17085 7.95612 7.79568 7.21769 7.12779L0.735569 1.25263C0.835876 1.04842 0.999239 0.87494 1.206 0.753163C1.41275 0.631271 1.6541 0.566405 1.9006 0.566152H1.90053ZM0.773997 11.8186C0.676062 11.6521 0.624862 11.4662 0.625001 11.2776V1.95369L6.14141 6.95357L0.773997 11.8186ZM1.90164 12.4334C1.6501 12.4336 1.404 12.3661 1.19503 12.2392L6.58358 7.35421L6.77513 7.52782L6.77499 7.5277C7.63088 8.30179 8.79048 8.73652 9.99944 8.73652C11.2085 8.73652 12.3681 8.30179 13.2239 7.5277L13.4154 7.35409L18.8065 12.239C18.5974 12.366 18.3514 12.4335 18.0999 12.4333L1.90164 12.4334Z" fill="#1BAC4B"/>
</svg>
