<svg width="20" height="13" viewBox="0 0 20 13" fill="none" xmlns="http://www.w3.org/2000/svg">
<path d="M12.0472 9.10003C11.3079 8.50406 10.732 8.22652 10.2348 8.22652C9.62954 8.22652 9.23019 8.63181 8.80748 9.06094C8.75986 9.10927 8.71147 9.15847 8.66191 9.20797C8.60261 9.26719 8.52772 9.2948 8.42684 9.2948C8.0683 9.2948 7.29797 8.95202 5.66306 7.31911C4.94024 6.59778 4.40915 5.97963 4.08451 5.48169C3.877 5.16324 3.56433 4.59371 3.80222 4.35605L3.93095 4.22838C4.70011 3.46884 5.36452 2.81308 3.881 0.976085C3.35915 0.319329 2.85271 0 2.33234 0C1.64292 0 1.11417 0.557955 0.647741 1.05019C0.563803 1.13887 0.481714 1.22532 0.401575 1.30555C0.137785 1.56847 -0.00116427 1.99673 7.34851e-06 2.54388C0.00263652 3.95403 0.976493 6.56114 3.71181 9.26727C6.47111 12.0224 9.07835 13 10.4728 13C11.0064 12.9999 11.4255 12.863 11.6845 12.6041C11.7608 12.528 11.8429 12.45 11.9268 12.37C12.4179 11.903 13.0289 11.3219 12.9989 10.5897C12.9782 10.0868 12.667 9.59947 12.0472 9.10013L12.0472 9.10003ZM11.6538 12.0837C11.5672 12.1661 11.483 12.2463 11.4046 12.3246C11.2211 12.5078 10.8989 12.6046 10.4728 12.6046C9.15396 12.6046 6.66553 11.6574 3.99124 8.98715C1.34162 6.36591 0.398589 3.87759 0.396096 2.54331C0.395317 2.1037 0.493862 1.7725 0.681598 1.58542C0.764367 1.50277 0.848889 1.4136 0.935566 1.3222C1.34718 0.887944 1.81351 0.395707 2.33252 0.395707C2.72406 0.395707 3.12904 0.666021 3.57202 1.2233C4.83176 2.78331 4.38792 3.22155 3.65274 3.94736L3.52226 4.07659C3.19032 4.40817 3.26772 4.9535 3.75294 5.69746C4.09249 6.21847 4.64111 6.8581 5.38329 7.59877C6.79231 9.00601 7.78799 9.6902 8.42677 9.6903H8.42687C8.63399 9.6903 8.80712 9.62213 8.94189 9.48765C8.99223 9.43738 9.0415 9.3875 9.0898 9.33829C9.48406 8.93816 9.79539 8.62204 10.2348 8.62204C10.6312 8.62204 11.1427 8.87904 11.7984 9.40782C12.317 9.82555 12.5876 10.2287 12.6031 10.6061C12.6258 11.1592 12.1093 11.6503 11.6537 12.0837L11.6538 12.0837Z" fill="#1BAC4B"/>
</svg>
