<svg width="19" height="19" viewBox="0 0 19 19" fill="none" xmlns="http://www.w3.org/2000/svg">
<path d="M13.527 12.5614C13.3409 12.3647 13.0821 12.2532 12.8113 12.2532H12.5333C12.4474 12.2532 12.3652 12.2188 12.3049 12.1577C12.1899 12.041 12.182 11.8568 12.2806 11.7259C12.8514 10.9681 13.2728 10.0969 13.5187 9.16317C13.7896 8.13497 13.8411 7.05649 13.6696 6.00491C13.172 2.90858 10.7157 0.43598 7.75133 0.0572928C6.70915 -0.0814117 5.65061 0.0325351 4.65673 0.390414C3.66284 0.748292 2.75995 1.34062 2.01714 2.12206C1.27433 2.90351 0.711295 3.85337 0.371111 4.89895C0.0309265 5.94453 -0.0773865 7.05812 0.05446 8.15451C0.414424 11.2731 2.76478 13.8571 5.70801 14.3806C6.7076 14.5611 7.73276 14.5069 8.71012 14.2219C9.59174 13.9649 10.4148 13.5258 11.1318 12.9313C11.2613 12.8239 11.4533 12.8323 11.567 12.9563C11.6187 13.0127 11.6474 13.0865 11.6474 13.163V13.4781C11.6474 13.7643 11.7574 14.0396 11.9545 14.247L16.147 18.6575C16.581 19.1142 17.2904 19.1142 17.7244 18.6575C18.1585 18.2009 18.1585 17.4546 17.7244 16.998L13.527 12.5614ZM6.88318 12.2532C4.24698 12.2532 2.11896 10.0145 2.11896 7.24121C2.11896 4.46788 4.24698 2.22917 6.88318 2.22917C9.51939 2.22917 11.6474 4.46788 11.6474 7.24121C11.6474 10.0145 9.51939 12.2532 6.88318 12.2532Z" fill="#AAAAAA"/>
</svg>
